<svg width="169" height="153" viewBox="0 0 169 153" fill="none" xmlns="http://www.w3.org/2000/svg">
<path d="M98.0908 113.05C76.1185 121.351 71.1513 132.081 65.1099 152.045H98.0907L98.0908 113.05Z" fill="#383C1C"/>
<path d="M65.1099 110.05C71.6474 90.8623 77.935 82.0588 98.0907 74.05L98.05 66.05C98.05 49.05 81.9514 33.05 65.0123 33.05L65.1099 110.05Z" fill="#383C1C"/>
<path d="M65.1099 110.05C71.6474 90.8623 77.935 82.0588 98.0907 74.05L98.05 66.05C98.05 49.05 81.9514 33.05 65.0123 33.05L65.1099 110.05Z" fill="#A6987F"/>
<path d="M161.054 33.05H127.074C120.925 52.4457 115.434 61.7205 98.0907 74.05C115.394 71.7435 124.845 73.5935 139.067 83.05C148.266 70.5795 154.287 55.0259 161.054 33.05Z" fill="#A6987F"/>
<path d="M134.07 152.045H168.05C164.378 143.024 162.928 136.886 161.075 124.636C157.587 104.203 150.471 91.5221 139.067 83.05C132.849 91.4798 124.837 98.9185 115.081 105.05C125.62 115.185 129.255 126.708 134.07 152.045Z" fill="#A6987F"/>
<path d="M65.0122 0.0500031L65.0123 33.05C81.9514 33.05 98.05 49.05 98.05 66.05C98.05 57.292 98.05 33.05 98.05 33.05C98.05 16.1057 81.9518 0.0500031 65.0122 0.0500031Z" fill="#575231"/>
<path d="M98.0907 74.05L98.0908 113.05C104.42 110.18 110.073 108.197 115.081 105.05C124.837 98.9185 132.849 91.4798 139.067 83.05C124.845 73.5935 115.394 71.7435 98.0907 74.05Z" fill="#7E7255"/>
<path d="M65.1099 110.05V152.045C71.1513 132.081 76.1185 121.351 98.0908 113.05L98.0907 74.05C77.935 82.0588 71.6474 90.8623 65.1099 110.05Z" fill="#575231"/>
<path d="M65.0123 33.05L65.0122 0.0500031H33.1285C8.78978 0.0499954 0.147652 8.05002 0.147652 33.05C0.147652 58.05 0.0500488 152.05 0.0500488 152.05H33.05V66.05C33.05 49.1057 48.0732 33.05 65.0123 33.05Z" fill="#383C1C"/>
<path d="M65.0122 0.0500031L65.0123 33.05M65.0122 0.0500031C65.0122 12.8951 65.0123 20.205 65.0123 33.05M65.0122 0.0500031C81.9518 0.0500031 98.05 16.1057 98.05 33.05C98.05 33.05 98.05 57.292 98.05 66.05M65.0122 0.0500031H33.1285C8.78978 0.0499954 0.147652 8.05002 0.147652 33.05C0.147652 58.05 0.0500488 152.05 0.0500488 152.05H33.05V66.05C33.05 49.1057 48.0732 33.05 65.0123 33.05M65.0123 33.05C65.0123 69.2497 65.1099 73.8503 65.1099 110.05M65.0123 33.05C81.9514 33.05 98.05 49.05 98.05 66.05M65.0123 33.05L65.1099 110.05M65.1099 152.045V110.05M65.1099 152.045C71.1513 132.081 76.1185 121.351 98.0908 113.05M65.1099 152.045H98.0907L98.0908 113.05M65.1099 110.05C71.6474 90.8623 77.935 82.0588 98.0907 74.05M98.0907 74.05L98.0908 113.05M98.0907 74.05C115.434 61.7205 120.925 52.4457 127.074 33.05H161.054C154.287 55.0259 148.266 70.5795 139.067 83.05M98.0907 74.05C115.394 71.7435 124.845 73.5935 139.067 83.05M98.0907 74.05L98.05 66.05M98.0908 113.05C104.42 110.18 110.073 108.197 115.081 105.05M115.081 105.05C125.62 115.185 129.255 126.708 134.07 152.045H168.05C164.378 143.024 162.928 136.886 161.075 124.636C157.587 104.203 150.471 91.5221 139.067 83.05M115.081 105.05C124.837 98.9185 132.849 91.4798 139.067 83.05" stroke="black" stroke-opacity="0.1" stroke-width="0.1"/>
</svg>
