<svg width="701" height="153" viewBox="0 0 701 153" fill="none" xmlns="http://www.w3.org/2000/svg">
<path d="M217.202 76.05C216.391 76.05 215.73 75.794 215.218 75.282C214.706 74.77 214.45 74.1087 214.45 73.298V28.818C214.45 28.0074 214.706 27.346 215.218 26.834C215.73 26.322 216.391 26.066 217.202 26.066H251.25C252.061 26.066 252.722 26.322 253.234 26.834C253.746 27.346 254.002 28.0074 254.002 28.818V73.298C254.002 74.1087 253.746 74.77 253.234 75.282C252.722 75.794 252.061 76.05 251.25 76.05C250.439 76.05 249.778 75.794 249.266 75.282C248.754 74.77 248.498 74.1087 248.498 73.298V31.122H219.954V73.298C219.954 74.1087 219.698 74.77 219.186 75.282C218.674 75.794 218.013 76.05 217.202 76.05ZM269.577 76.05C268.766 76.05 268.105 75.794 267.593 75.282C267.081 74.77 266.825 74.1087 266.825 73.298V28.818C266.825 28.0074 267.081 27.346 267.593 26.834C268.105 26.322 268.766 26.066 269.577 26.066H282.377C285.534 26.066 288.329 26.77 290.761 28.178C293.236 29.5434 295.156 31.4634 296.521 33.938C297.886 36.37 298.569 39.2074 298.569 42.45C298.569 45.5647 297.886 48.338 296.521 50.77C295.156 53.1594 293.236 55.058 290.761 56.466C288.329 57.8314 285.534 58.514 282.377 58.514H272.329V73.298C272.329 74.1087 272.073 74.77 271.561 75.282C271.049 75.794 270.388 76.05 269.577 76.05ZM272.329 53.266H282.377C284.468 53.266 286.324 52.818 287.945 51.922C289.609 50.9834 290.91 49.7034 291.849 48.082C292.788 46.418 293.257 44.5407 293.257 42.45C293.257 40.2314 292.788 38.29 291.849 36.626C290.953 34.962 289.673 33.6607 288.009 32.722C286.345 31.7407 284.468 31.25 282.377 31.25H272.329V53.266ZM329.304 76.69C325.592 76.69 322.179 76.05 319.064 74.77C315.949 73.49 313.24 71.7194 310.936 69.458C308.675 67.154 306.925 64.4447 305.688 61.33C304.451 58.1727 303.832 54.738 303.832 51.026C303.832 47.314 304.451 43.9007 305.688 40.786C306.925 37.6714 308.675 34.9834 310.936 32.722C313.24 30.418 315.949 28.626 319.064 27.346C322.179 26.066 325.592 25.426 329.304 25.426C333.016 25.426 336.408 26.066 339.48 27.346C342.595 28.626 345.304 30.418 347.608 32.722C349.912 34.9834 351.683 37.6714 352.92 40.786C354.157 43.9007 354.776 47.314 354.776 51.026C354.776 54.738 354.157 58.1727 352.92 61.33C351.683 64.4447 349.912 67.154 347.608 69.458C345.304 71.7194 342.595 73.49 339.48 74.77C336.408 76.05 333.016 76.69 329.304 76.69ZM329.304 71.57C332.205 71.57 334.872 71.058 337.304 70.034C339.779 68.9674 341.912 67.5167 343.704 65.682C345.539 63.8047 346.947 61.6287 347.928 59.154C348.909 56.6367 349.4 53.9274 349.4 51.026C349.4 48.1247 348.909 45.4367 347.928 42.962C346.947 40.4447 345.539 38.2687 343.704 36.434C341.912 34.5567 339.779 33.106 337.304 32.082C334.872 31.058 332.205 30.546 329.304 30.546C326.403 30.546 323.715 31.058 321.24 32.082C318.765 33.106 316.632 34.5567 314.84 36.434C313.048 38.2687 311.64 40.4447 310.616 42.962C309.635 45.4367 309.144 48.1247 309.144 51.026C309.144 53.9274 309.635 56.6367 310.616 59.154C311.64 61.6287 313.048 63.8047 314.84 65.682C316.632 67.5167 318.765 68.9674 321.24 70.034C323.715 71.058 326.403 71.57 329.304 71.57ZM379.026 76.69C376.807 76.69 374.61 76.4127 372.434 75.858C370.258 75.3034 368.295 74.514 366.546 73.49C364.796 72.4234 363.452 71.1647 362.514 69.714C362.343 69.074 362.258 68.434 362.258 67.794C362.3 67.1114 362.599 66.5567 363.154 66.13C363.708 65.7034 364.306 65.554 364.946 65.682C365.628 65.81 366.204 66.1727 366.674 66.77C367.996 68.2207 369.724 69.394 371.858 70.29C374.034 71.186 376.423 71.634 379.026 71.634C381.33 71.634 383.356 71.2287 385.106 70.418C386.898 69.6074 388.306 68.4554 389.33 66.962C390.354 65.426 390.866 63.634 390.866 61.586C390.866 58.5994 389.927 56.274 388.05 54.61C386.215 52.9034 383.826 52.05 380.882 52.05H376.85C376.124 52.05 375.527 51.8367 375.058 51.41C374.631 50.9407 374.418 50.3434 374.418 49.618C374.418 48.8927 374.631 48.3167 375.058 47.89C375.527 47.4207 376.103 47.186 376.786 47.186H380.242C382.631 47.186 384.615 46.418 386.194 44.882C387.772 43.3034 388.562 41.1914 388.562 38.546C388.562 35.8154 387.623 33.7887 385.746 32.466C383.868 31.1434 381.458 30.482 378.514 30.482C376.295 30.482 374.268 30.8874 372.434 31.698C370.599 32.5087 369.084 33.7034 367.89 35.282C367.335 36.0074 366.716 36.4767 366.034 36.69C365.394 36.9034 364.732 36.7967 364.05 36.37C363.495 35.986 363.132 35.474 362.962 34.834C362.791 34.1514 362.919 33.5114 363.346 32.914C364.967 30.738 367.015 28.9674 369.49 27.602C371.964 26.194 374.972 25.49 378.514 25.49C381.543 25.49 384.21 26.0447 386.514 27.154C388.818 28.2207 390.631 29.714 391.954 31.634C393.276 33.554 393.938 35.73 393.938 38.162C393.938 39.9114 393.575 41.5114 392.85 42.962C392.167 44.4127 391.25 45.6714 390.098 46.738C388.946 47.8047 387.687 48.6367 386.322 49.234C384.999 49.7887 383.719 50.1087 382.482 50.194V48.466C383.932 48.5514 385.447 48.8714 387.026 49.426C388.647 49.9807 390.14 50.8127 391.506 51.922C392.914 53.0314 394.044 54.3967 394.898 56.018C395.794 57.6394 396.242 59.5594 396.242 61.778C396.242 64.6367 395.495 67.1967 394.002 69.458C392.508 71.6767 390.46 73.4474 387.858 74.77C385.298 76.05 382.354 76.69 379.026 76.69ZM409.14 76.05C408.329 76.05 407.668 75.794 407.156 75.282C406.644 74.77 406.388 74.1087 406.388 73.298V28.818C406.388 28.0074 406.644 27.346 407.156 26.834C407.668 26.322 408.329 26.066 409.14 26.066H421.94C425.097 26.066 427.892 26.77 430.324 28.178C432.798 29.5434 434.718 31.4634 436.084 33.938C437.449 36.37 438.132 39.2074 438.132 42.45C438.132 45.5647 437.449 48.338 436.084 50.77C434.718 53.1594 432.798 55.058 430.324 56.466C427.892 57.8314 425.097 58.514 421.94 58.514H411.892V73.298C411.892 74.1087 411.636 74.77 411.124 75.282C410.612 75.794 409.95 76.05 409.14 76.05ZM411.892 53.266H421.94C424.03 53.266 425.886 52.818 427.508 51.922C429.172 50.9834 430.473 49.7034 431.412 48.082C432.35 46.418 432.82 44.5407 432.82 42.45C432.82 40.2314 432.35 38.29 431.412 36.626C430.516 34.962 429.236 33.6607 427.572 32.722C425.908 31.7407 424.03 31.25 421.94 31.25H411.892V53.266ZM441.329 76.05C440.262 76.05 439.473 75.6234 438.961 74.77C438.492 73.874 438.449 72.978 438.833 72.082L457.393 27.922C457.948 26.6847 458.844 26.066 460.081 26.066C461.318 26.066 462.172 26.6847 462.641 27.922L481.265 72.146C481.692 73.0847 481.628 73.9807 481.073 74.834C480.561 75.6447 479.814 76.05 478.833 76.05C478.278 76.05 477.766 75.9007 477.297 75.602C476.828 75.3034 476.465 74.898 476.209 74.386L459.185 32.658H461.105L443.825 74.386C443.612 74.9407 443.27 75.3674 442.801 75.666C442.332 75.922 441.841 76.05 441.329 76.05ZM445.297 64.402L447.409 59.73H473.073L475.249 64.402H445.297ZM505.593 59.282C501.71 59.282 498.382 58.45 495.609 56.786C492.836 55.122 490.724 52.7327 489.273 49.618C487.822 46.5034 487.097 42.7914 487.097 38.482V28.754C487.097 27.9434 487.353 27.3034 487.865 26.834C488.42 26.322 489.081 26.066 489.849 26.066C490.66 26.066 491.321 26.322 491.833 26.834C492.345 27.3034 492.601 27.9434 492.601 28.754V38.482C492.601 41.7674 493.049 44.6047 493.945 46.994C494.884 49.3407 496.334 51.154 498.297 52.434C500.26 53.714 502.777 54.354 505.849 54.354C508.452 54.354 510.777 54.034 512.825 53.394C514.916 52.754 516.537 51.9007 517.689 50.834C518.884 49.7247 519.481 48.466 519.481 47.058H522.361C522.276 49.4474 521.486 51.5594 519.993 53.394C518.5 55.2287 516.516 56.6794 514.041 57.746C511.566 58.77 508.75 59.282 505.593 59.282ZM522.233 76.05C521.465 76.05 520.804 75.794 520.249 75.282C519.737 74.77 519.481 74.1087 519.481 73.298V28.818C519.481 28.0074 519.737 27.346 520.249 26.834C520.804 26.322 521.465 26.066 522.233 26.066C523.044 26.066 523.705 26.322 524.217 26.834C524.729 27.346 524.985 28.0074 524.985 28.818V73.298C524.985 74.1087 524.729 74.77 524.217 75.282C523.705 75.794 523.044 76.05 522.233 76.05ZM540.515 76.05C539.704 76.05 539.043 75.794 538.531 75.282C538.019 74.77 537.763 74.1087 537.763 73.298V28.818C537.763 28.0074 538.019 27.346 538.531 26.834C539.043 26.322 539.704 26.066 540.515 26.066C541.325 26.066 541.987 26.322 542.499 26.834C543.011 27.346 543.267 28.0074 543.267 28.818V48.274H574.051V28.818C574.051 28.0074 574.307 27.346 574.819 26.834C575.331 26.322 575.992 26.066 576.803 26.066C577.571 26.066 578.211 26.322 578.723 26.834C579.235 27.346 579.491 28.0074 579.491 28.818V73.298C579.491 74.1087 579.235 74.77 578.723 75.282C578.211 75.794 577.571 76.05 576.803 76.05C575.992 76.05 575.331 75.794 574.819 75.282C574.307 74.77 574.051 74.1087 574.051 73.298V53.202H543.267V73.298C543.267 74.1087 543.011 74.77 542.499 75.282C541.987 75.794 541.325 76.05 540.515 76.05ZM595.207 76.05C594.353 76.05 593.649 75.794 593.095 75.282C592.54 74.77 592.263 74.1087 592.263 73.298V28.562C592.263 27.8367 592.519 27.2394 593.031 26.77C593.543 26.3007 594.204 26.066 595.015 26.066C595.825 26.066 596.487 26.3007 596.999 26.77C597.511 27.2394 597.767 27.8367 597.767 28.562V45.842H609.607C612.679 45.842 615.388 46.482 617.735 47.762C620.124 49.042 621.98 50.8127 623.303 53.074C624.625 55.2927 625.287 57.8314 625.287 60.69C625.287 63.7194 624.625 66.386 623.303 68.69C621.98 70.994 620.124 72.8074 617.735 74.13C615.388 75.41 612.679 76.05 609.607 76.05H595.207ZM597.767 70.866H609.607C611.655 70.866 613.447 70.4607 614.983 69.65C616.519 68.7967 617.735 67.602 618.631 66.066C619.527 64.53 619.975 62.6954 619.975 60.562C619.975 58.4714 619.527 56.7007 618.631 55.25C617.735 53.7567 616.519 52.626 614.983 51.858C613.447 51.0474 611.655 50.642 609.607 50.642H597.767V70.866ZM636.231 76.05C635.42 76.05 634.759 75.794 634.247 75.282C633.735 74.77 633.479 74.1087 633.479 73.298V28.818C633.479 28.0074 633.735 27.346 634.247 26.834C634.759 26.322 635.42 26.066 636.231 26.066C636.956 26.066 637.575 26.322 638.087 26.834C638.641 27.346 638.919 28.0074 638.919 28.818V73.298C638.919 74.1087 638.641 74.77 638.087 75.282C637.575 75.794 636.956 76.05 636.231 76.05ZM654.516 76.05C653.748 76.05 653.087 75.794 652.532 75.282C651.977 74.77 651.7 74.1087 651.7 73.298V28.818C651.7 28.0074 651.977 27.346 652.532 26.834C653.087 26.322 653.748 26.066 654.516 26.066C655.327 26.066 655.967 26.322 656.436 26.834C656.948 27.346 657.204 28.0074 657.204 28.818V67.218L688.756 27.09C689.311 26.4074 690.015 26.066 690.868 26.066C691.679 26.066 692.34 26.322 692.852 26.834C693.364 27.346 693.62 28.0074 693.62 28.818V73.298C693.62 74.1087 693.364 74.77 692.852 75.282C692.34 75.794 691.679 76.05 690.868 76.05C690.1 76.05 689.439 75.794 688.884 75.282C688.372 74.77 688.116 74.1087 688.116 73.298V34.962L656.628 75.09C656.372 75.3887 656.052 75.6234 655.668 75.794C655.284 75.9647 654.9 76.05 654.516 76.05ZM672.756 21.522C670.623 21.522 668.703 21.1594 666.996 20.434C665.332 19.7087 664.009 18.7274 663.028 17.49C662.047 16.21 661.556 14.802 661.556 13.266C661.556 12.498 661.791 11.858 662.26 11.346C662.772 10.834 663.369 10.578 664.052 10.578C664.777 10.578 665.375 10.834 665.844 11.346C666.313 11.858 666.548 12.5407 666.548 13.394C666.548 14.546 667.145 15.4847 668.34 16.21C669.535 16.9354 671.007 17.298 672.756 17.298C674.548 17.298 676.02 16.9354 677.172 16.21C678.367 15.4847 678.964 14.546 678.964 13.394C678.964 12.5407 679.199 11.858 679.668 11.346C680.18 10.834 680.777 10.578 681.46 10.578C682.185 10.578 682.783 10.834 683.252 11.346C683.721 11.858 683.956 12.498 683.956 13.266C683.956 14.802 683.465 16.21 682.484 17.49C681.503 18.7274 680.159 19.7087 678.452 20.434C676.788 21.1594 674.889 21.522 672.756 21.522Z" fill="#9F9177"/>
<path d="M251.186 139.218C250.589 139.815 249.778 140.093 248.754 140.05C247.73 140.05 246.919 139.709 246.322 139.026L225.33 114.578L244.914 91.154C245.511 90.4287 246.279 90.066 247.218 90.066C248.199 90.0234 248.989 90.3434 249.586 91.026C250.183 91.7087 250.461 92.434 250.418 93.202C250.418 93.9274 250.119 94.6314 249.522 95.314L233.33 114.13L251.186 134.866C251.783 135.549 252.103 136.274 252.146 137.042C252.231 137.767 251.911 138.493 251.186 139.218ZM217.778 140.05C216.839 140.05 216.05 139.73 215.41 139.09C214.77 138.45 214.45 137.661 214.45 136.722V93.394C214.45 92.4127 214.77 91.6234 215.41 91.026C216.05 90.386 216.839 90.066 217.778 90.066C218.759 90.066 219.549 90.386 220.146 91.026C220.786 91.6234 221.106 92.4127 221.106 93.394V111.762H231.602V117.65H221.106V136.722C221.106 137.661 220.786 138.45 220.146 139.09C219.549 139.73 218.759 140.05 217.778 140.05ZM285.644 140.69C281.889 140.69 278.455 140.071 275.34 138.834C272.225 137.554 269.537 135.783 267.276 133.522C265.057 131.218 263.329 128.509 262.092 125.394C260.855 122.237 260.236 118.781 260.236 115.026C260.236 111.271 260.855 107.837 262.092 104.722C263.329 101.607 265.057 98.9194 267.276 96.658C269.537 94.354 272.225 92.5834 275.34 91.346C278.455 90.066 281.889 89.426 285.644 89.426C289.399 89.426 292.812 90.066 295.884 91.346C298.999 92.5834 301.687 94.354 303.948 96.658C306.209 98.9194 307.959 101.607 309.196 104.722C310.433 107.837 311.052 111.271 311.052 115.026C311.052 118.781 310.433 122.237 309.196 125.394C307.959 128.509 306.209 131.218 303.948 133.522C301.687 135.783 298.999 137.554 295.884 138.834C292.812 140.071 289.399 140.69 285.644 140.69ZM285.644 134.674C288.417 134.674 290.956 134.183 293.26 133.202C295.607 132.178 297.633 130.791 299.34 129.042C301.047 127.25 302.348 125.159 303.244 122.77C304.183 120.381 304.652 117.799 304.652 115.026C304.652 112.253 304.183 109.671 303.244 107.282C302.348 104.893 301.047 102.823 299.34 101.074C297.633 99.282 295.607 97.8954 293.26 96.914C290.956 95.9327 288.417 95.442 285.644 95.442C282.871 95.442 280.311 95.9327 277.964 96.914C275.66 97.8954 273.655 99.282 271.948 101.074C270.284 102.823 268.983 104.893 268.044 107.282C267.105 109.671 266.636 112.253 266.636 115.026C266.636 117.799 267.105 120.381 268.044 122.77C268.983 125.159 270.284 127.25 271.948 129.042C273.655 130.791 275.66 132.178 277.964 133.202C280.311 134.183 282.871 134.674 285.644 134.674ZM328.646 140.05C327.707 140.05 326.918 139.73 326.278 139.09C325.638 138.45 325.318 137.661 325.318 136.722V93.394C325.318 92.4127 325.638 91.6234 326.278 91.026C326.918 90.386 327.707 90.066 328.646 90.066C329.926 90.066 330.907 90.6634 331.59 91.858L351.622 131.986H349.574L369.094 91.858C369.776 90.6634 370.758 90.066 372.038 90.066C372.976 90.066 373.766 90.386 374.406 91.026C375.046 91.6234 375.366 92.4127 375.366 93.394V136.722C375.366 137.661 375.024 138.45 374.342 139.09C373.702 139.73 372.934 140.05 372.038 140.05C371.099 140.05 370.31 139.73 369.67 139.09C369.03 138.45 368.71 137.661 368.71 136.722V102.61L369.99 102.29L353.222 136.466C352.496 137.575 351.536 138.13 350.342 138.13C348.934 138.13 347.91 137.469 347.27 136.146L330.694 102.93L331.974 102.61V136.722C331.974 137.661 331.654 138.45 331.014 139.09C330.374 139.73 329.584 140.05 328.646 140.05ZM413.857 134.29C410.315 134.29 407.073 133.821 404.129 132.882C401.185 131.943 398.625 130.621 396.449 128.914C394.315 127.165 392.651 125.117 391.457 122.77C390.305 120.423 389.729 117.842 389.729 115.026C389.729 112.21 390.305 109.65 391.457 107.346C392.651 104.999 394.315 102.973 396.449 101.266C398.625 99.5167 401.185 98.1727 404.129 97.234C407.073 96.2954 410.315 95.826 413.857 95.826C417.398 95.826 420.641 96.2954 423.585 97.234C426.529 98.1727 429.067 99.5167 431.201 101.266C433.377 102.973 435.041 104.999 436.193 107.346C437.387 109.65 437.985 112.21 437.985 115.026C437.985 117.842 437.387 120.423 436.193 122.77C435.041 125.117 433.377 127.165 431.201 128.914C429.067 130.621 426.529 131.943 423.585 132.882C420.641 133.821 417.398 134.29 413.857 134.29ZM413.857 128.914C417.313 128.914 420.363 128.338 423.009 127.186C425.697 126.034 427.787 124.413 429.281 122.322C430.817 120.231 431.585 117.799 431.585 115.026C431.585 112.253 430.817 109.842 429.281 107.794C427.787 105.703 425.697 104.082 423.009 102.93C420.363 101.778 417.313 101.202 413.857 101.202C410.401 101.202 407.329 101.778 404.641 102.93C401.995 104.082 399.905 105.703 398.369 107.794C396.875 109.842 396.129 112.253 396.129 115.026C396.129 117.799 396.875 120.231 398.369 122.322C399.905 124.413 401.995 126.034 404.641 127.186C407.329 128.338 410.401 128.914 413.857 128.914ZM413.985 140.05C413.046 140.05 412.257 139.73 411.617 139.09C410.977 138.45 410.657 137.661 410.657 136.722V133.074L410.977 130.386V99.922L410.657 97.938V93.394C410.657 92.4127 410.977 91.6234 411.617 91.026C412.257 90.386 413.046 90.066 413.985 90.066C414.966 90.066 415.755 90.386 416.353 91.026C416.993 91.6234 417.313 92.4127 417.313 93.394V98.002L416.993 99.922V130.386L417.313 132.562V136.722C417.313 137.661 416.993 138.45 416.353 139.09C415.755 139.73 414.966 140.05 413.985 140.05ZM474.102 140.69C470.347 140.69 466.912 140.071 463.798 138.834C460.683 137.554 457.995 135.783 455.734 133.522C453.515 131.218 451.787 128.509 450.55 125.394C449.312 122.237 448.694 118.781 448.694 115.026C448.694 111.271 449.312 107.837 450.55 104.722C451.787 101.607 453.515 98.9194 455.734 96.658C457.995 94.354 460.683 92.5834 463.798 91.346C466.912 90.066 470.347 89.426 474.102 89.426C477.856 89.426 481.27 90.066 484.342 91.346C487.456 92.5834 490.144 94.354 492.406 96.658C494.667 98.9194 496.416 101.607 497.654 104.722C498.891 107.837 499.51 111.271 499.51 115.026C499.51 118.781 498.891 122.237 497.654 125.394C496.416 128.509 494.667 131.218 492.406 133.522C490.144 135.783 487.456 137.554 484.342 138.834C481.27 140.071 477.856 140.69 474.102 140.69ZM474.102 134.674C476.875 134.674 479.414 134.183 481.718 133.202C484.064 132.178 486.091 130.791 487.798 129.042C489.504 127.25 490.806 125.159 491.702 122.77C492.64 120.381 493.11 117.799 493.11 115.026C493.11 112.253 492.64 109.671 491.702 107.282C490.806 104.893 489.504 102.823 487.798 101.074C486.091 99.282 484.064 97.8954 481.718 96.914C479.414 95.9327 476.875 95.442 474.102 95.442C471.328 95.442 468.768 95.9327 466.422 96.914C464.118 97.8954 462.112 99.282 460.406 101.074C458.742 102.823 457.44 104.893 456.502 107.282C455.563 109.671 455.094 112.253 455.094 115.026C455.094 117.799 455.563 120.381 456.502 122.77C457.44 125.159 458.742 127.25 460.406 129.042C462.112 130.791 464.118 132.178 466.422 133.202C468.768 134.183 471.328 134.674 474.102 134.674ZM517.103 140.05C516.164 140.05 515.375 139.73 514.735 139.09C514.095 138.45 513.775 137.661 513.775 136.722V93.394C513.775 92.4127 514.095 91.6234 514.735 91.026C515.375 90.386 516.164 90.066 517.103 90.066H529.903C533.103 90.066 535.94 90.77 538.415 92.178C540.89 93.586 542.81 95.5487 544.175 98.066C545.583 100.541 546.287 103.399 546.287 106.642C546.287 109.757 545.583 112.53 544.175 114.962C542.81 117.394 540.89 119.293 538.415 120.658C535.94 122.023 533.103 122.706 529.903 122.706H520.431V136.722C520.431 137.661 520.111 138.45 519.471 139.09C518.874 139.73 518.084 140.05 517.103 140.05ZM520.431 116.562H529.903C531.866 116.562 533.594 116.135 535.087 115.282C536.58 114.429 537.754 113.255 538.607 111.762C539.46 110.269 539.887 108.562 539.887 106.642C539.887 104.594 539.46 102.802 538.607 101.266C537.754 99.6874 536.58 98.45 535.087 97.554C533.594 96.658 531.866 96.21 529.903 96.21H520.431V116.562ZM572.899 140.05C571.96 140.05 571.171 139.73 570.531 139.09C569.891 138.45 569.571 137.661 569.571 136.722V90.066H576.227V136.722C576.227 137.661 575.907 138.45 575.267 139.09C574.627 139.73 573.838 140.05 572.899 140.05ZM555.747 96.21C554.851 96.21 554.104 95.9327 553.507 95.378C552.952 94.7807 552.675 94.034 552.675 93.138C552.675 92.242 552.952 91.5167 553.507 90.962C554.104 90.3647 554.851 90.066 555.747 90.066H589.987C590.883 90.066 591.608 90.3647 592.163 90.962C592.76 91.5167 593.059 92.242 593.059 93.138C593.059 94.034 592.76 94.7807 592.163 95.378C591.608 95.9327 590.883 96.21 589.987 96.21H555.747Z" fill="#3C401B"/>
<path d="M98.0908 113.05C76.1185 121.351 71.1513 132.081 65.1099 152.046H98.0907L98.0908 113.05Z" fill="#383C1C"/>
<path d="M65.1099 110.05C71.6474 90.8624 77.935 82.0588 98.0907 74.05L98.05 66.05C98.05 49.05 81.9514 33.0501 65.0123 33.0501L65.1099 110.05Z" fill="#383C1C"/>
<path d="M65.1099 110.05C71.6474 90.8624 77.935 82.0588 98.0907 74.05L98.05 66.05C98.05 49.05 81.9514 33.0501 65.0123 33.0501L65.1099 110.05Z" fill="#A6987F"/>
<path d="M161.054 33.0501H127.074C120.925 52.4458 115.434 61.7206 98.0907 74.05C115.394 71.7435 124.845 73.5935 139.067 83.05C148.266 70.5795 154.287 55.026 161.054 33.0501Z" fill="#A6987F"/>
<path d="M134.07 152.046H168.05C164.378 143.024 162.928 136.886 161.075 124.636C157.587 104.203 150.471 91.5222 139.067 83.05C132.849 91.4799 124.837 98.9186 115.081 105.05C125.62 115.185 129.255 126.708 134.07 152.046Z" fill="#A6987F"/>
<path d="M65.0122 0.0500488L65.0123 33.0501C81.9514 33.0501 98.05 49.05 98.05 66.05C98.05 57.2921 98.05 33.05 98.05 33.05C98.05 16.1058 81.9518 0.0500488 65.0122 0.0500488Z" fill="#575231"/>
<path d="M98.0907 74.05L98.0908 113.05C104.42 110.18 110.073 108.197 115.081 105.05C124.837 98.9186 132.849 91.4799 139.067 83.05C124.845 73.5935 115.394 71.7435 98.0907 74.05Z" fill="#7E7255"/>
<path d="M65.1099 110.05V152.046C71.1513 132.081 76.1185 121.351 98.0908 113.05L98.0907 74.05C77.935 82.0588 71.6474 90.8624 65.1099 110.05Z" fill="#575231"/>
<path d="M65.0123 33.0501L65.0122 0.0500488H33.1285C8.78978 0.0500412 0.147652 8.05006 0.147652 33.0501C0.147652 58.0501 0.0500488 152.05 0.0500488 152.05H33.05V66.05C33.05 49.1058 48.0732 33.0501 65.0123 33.0501Z" fill="#383C1C"/>
<path d="M65.0122 0.0500488L65.0123 33.0501M65.0122 0.0500488C65.0122 12.8951 65.0123 20.205 65.0123 33.0501M65.0122 0.0500488C81.9518 0.0500488 98.05 16.1058 98.05 33.05C98.05 33.05 98.05 57.2921 98.05 66.05M65.0122 0.0500488H33.1285C8.78978 0.0500412 0.147652 8.05006 0.147652 33.0501C0.147652 58.0501 0.0500488 152.05 0.0500488 152.05H33.05V66.05C33.05 49.1058 48.0732 33.0501 65.0123 33.0501M65.0123 33.0501C65.0123 69.2498 65.1099 73.8503 65.1099 110.05M65.0123 33.0501C81.9514 33.0501 98.05 49.05 98.05 66.05M65.0123 33.0501L65.1099 110.05M65.1099 152.046V110.05M65.1099 152.046C71.1513 132.081 76.1185 121.351 98.0908 113.05M65.1099 152.046H98.0907L98.0908 113.05M65.1099 110.05C71.6474 90.8624 77.935 82.0588 98.0907 74.05M98.0907 74.05L98.0908 113.05M98.0907 74.05C115.434 61.7206 120.925 52.4458 127.074 33.0501H161.054C154.287 55.026 148.266 70.5795 139.067 83.05M98.0907 74.05C115.394 71.7435 124.845 73.5935 139.067 83.05M98.0907 74.05L98.05 66.05M98.0908 113.05C104.42 110.18 110.073 108.197 115.081 105.05M115.081 105.05C125.62 115.185 129.255 126.708 134.07 152.046H168.05C164.378 143.024 162.928 136.886 161.075 124.636C157.587 104.203 150.471 91.5222 139.067 83.05M115.081 105.05C124.837 98.9186 132.849 91.4799 139.067 83.05" stroke="black" stroke-opacity="0.1" stroke-width="0.1"/>
</svg>
